[Header]
FileType HTR
DataType HTRS
FileVersion 1
NumSegments 64
NumFrames 4
DataFrameRate 30
EulerRotationOrder ZYX
CalibrationUnits mm
RotationUnits Degrees
GlobalAxisofGravity Y
BoneLengthAxis Y
ScaleFactor 1.0
[SegmentNames&Hierarchy]
Hips	GLOBAL
Spine	Hips
Spine1	Spine
Spine2	Spine1
Neck	Spine2
Head	Neck
LeftEye	Head
RightEye	Head
LeftShoulder	Spine2
LeftArm	LeftShoulder
LeftForeArm	LeftArm
LeftHand	LeftForeArm
LeftHandThumb1	LeftHand
LeftHandThumb2	LeftHandThumb1
LeftHandThumb3	LeftHandThumb2
LeftHandThumb4	LeftHandThumb3
LeftHandIndex1	LeftHand
LeftHandIndex2	LeftHandIndex1
LeftHandIndex3	LeftHandIndex2
LeftHandIndex4	LeftHandIndex3
LeftHandMiddle1	LeftHand
LeftHandMiddle2	LeftHandMiddle1
LeftHandMiddle3	LeftHandMiddle2
LeftHandMiddle4	LeftHandMiddle3
LeftHandRing1	LeftHand
LeftHandRing2	LeftHandRing1
LeftHandRing3	LeftHandRing2
LeftHandRing4	LeftHandRing3
LeftHandPinky1	LeftHand
LeftHandPinky2	LeftHandPinky1
LeftHandPinky3	LeftHandPinky2
LeftHandPinky4	LeftHandPinky3
RightShoulder	Spine2
RightArm	RightShoulder
RightForeArm	RightArm
RightHand	RightForeArm
RightHandPinky1	RightHand
RightHandPinky2	RightHandPinky1
RightHandPinky3	RightHandPinky2
RightHandPinky4	RightHandPinky3
RightHandRing1	RightHand
RightHandRing2	RightHandRing1
RightHandRing3	RightHandRing2
RightHandRing4	RightHandRing3
RightHandMiddle1	RightHand
RightHandMiddle2	RightHandMiddle1
RightHandMiddle3	RightHandMiddle2
RightHandMiddle4	RightHandMiddle3
RightHandIndex1	RightHand
RightHandIndex2	RightHandIndex1
RightHandIndex3	RightHandIndex2
RightHandIndex4	RightHandIndex3
RightHandThumb1	RightHand
RightHandThumb2	RightHandThumb1
RightHandThumb3	RightHandThumb2
RightHandThumb4	RightHandThumb3
LeftUpLeg	Hips
LeftLeg	LeftUpLeg
LeftFoot	LeftLeg
LeftToeBase	LeftFoot
RightUpLeg	Hips
RightLeg	RightUpLeg
RightFoot	RightLeg
RightToeBase	RightFoot
[BasePosition]
Hips	0	0	0	0	0	0	1
Spine	0	0	0	0	0	0	1
Spine1	0	0	0	0	0	0	1
Spine2	0	0	0	0	0	0	1
Neck	0	0	0	0	0	0	1
Head	0	0	0	0	0	0	1
LeftEye	0	0	0	0	0	0	1
RightEye	0	0	0	0	0	0	1
LeftShoulder	0	0	0	0	0	0	1
LeftArm	0	0	0	0	0	0	1
LeftForeArm	0	0	0	0	0	0	1
LeftHand	0	0	0	0	0	0	1
LeftHandThumb1	0	0	0	0	0	0	1
LeftHandThumb2	0	0	0	0	0	0	1
LeftHandThumb3	0	0	0	0	0	0	1
LeftHandThumb4	0	0	0	0	0	0	1
LeftHandIndex1	0	0	0	0	0	0	1
LeftHandIndex2	0	0	0	0	0	0	1
LeftHandIndex3	0	0	0	0	0	0	1
LeftHandIndex4	0	0	0	0	0	0	1
LeftHandMiddle1	0	0	0	0	0	0	1
LeftHandMiddle2	0	0	0	0	0	0	1
LeftHandMiddle3	0	0	0	0	0	0	1
LeftHandMiddle4	0	0	0	0	0	0	1
LeftHandRing1	0	0	0	0	0	0	1
LeftHandRing2	0	0	0	0	0	0	1
LeftHandRing3	0	0	0	0	0	0	1
LeftHandRing4	0	0	0	0	0	0	1
LeftHandPinky1	0	0	0	0	0	0	1
LeftHandPinky2	0	0	0	0	0	0	1
LeftHandPinky3	0	0	0	0	0	0	1
LeftHandPinky4	0	0	0	0	0	0	1
RightShoulder	0	0	0	0	0	0	1
RightArm	0	0	0	0	0	0	1
RightForeArm	0	0	0	0	0	0	1
RightHand	0	0	0	0	0	0	1
RightHandPinky1	0	0	0	0	0	0	1
RightHandPinky2	0	0	0	0	0	0	1
RightHandPinky3	0	0	0	0	0	0	1
RightHandPinky4	0	0	0	0	0	0	1
RightHandRing1	0	0	0	0	0	0	1
RightHandRing2	0	0	0	0	0	0	1
RightHandRing3	0	0	0	0	0	0	1
RightHandRing4	0	0	0	0	0	0	1
RightHandMiddle1	0	0	0	0	0	0	1
RightHandMiddle2	0	0	0	0	0	0	1
RightHandMiddle3	0	0	0	0	0	0	1
RightHandMiddle4	0	0	0	0	0	0	1
RightHandIndex1	0	0	0	0	0	0	1
RightHandIndex2	0	0	0	0	0	0	1
RightHandIndex3	0	0	0	0	0	0	1
RightHandIndex4	0	0	0	0	0	0	1
RightHandThumb1	0	0	0	0	0	0	1
RightHandThumb2	0	0	0	0	0	0	1
RightHandThumb3	0	0	0	0	0	0	1
RightHandThumb4	0	0	0	0	0	0	1
LeftUpLeg	0	0	0	0	0	0	1
LeftLeg	0	0	0	0	0	0	1
LeftFoot	0	0	0	0	0	0	1
LeftToeBase	0	0	0	0	0	0	1
RightUpLeg	0	0	0	0	0	0	1
RightLeg	0	0	0	0	0	0	1
RightFoot	0	0	0	0	0	0	1
RightToeBase	0	0	0	0	0	0	1
[Hips]
325	209.4443512	984.3262329	36.59472275	5.885669231	-2.966750145	1.54481554	1.0
326	169.3487854	973.7941895	29.46904755	7.477832317	-2.078705788	2.872633219	1.0
327	135.0875854	969.7783813	17.71523285	6.712409973	-1.878754735	3.481805086	1.0
328	114.354393	973.0585327	6.523735046	5.216994286	-1.998824596	2.110435247	1.0
[Spine]
325	0	101.8159943	1.315000057	3.184500933	0.7058832645	6.068384171	1.0
326	0	101.8159943	1.315000057	2.696323633	1.063004971	2.306544065	1.0
327	0	101.8159943	1.315000057	4.094040871	0.7516517639	0.4107529521	1.0
328	0	101.8159943	1.315000057	5.895344257	0.1889587641	1.858572125	1.0
[Spine1]
325	0	100.8349991	-10.00800037	1.117580175	0.365483135	3.131601572	1.0
326	0	100.8349991	-10.00800037	0.9124937057	0.432700485	2.719707727	1.0
327	0	100.8349991	-10.00800037	1.894295931	0.3626234233	2.324458599	1.0
328	0	100.8349991	-10.00800037	3.070637941	0.2325763106	2.110002279	1.0
[Spine2]
325	0	91	-13.73399925	1.087266803	0.4427514076	3.123731852	1.0
326	0	91	-13.73399925	0.876328826	0.5080385208	2.713267088	1.0
327	0	91	-13.73399925	1.859747648	0.463626802	2.320438147	1.0
328	0	91	-13.73399925	3.04215169	0.3541058004	2.109537601	1.0
[Neck]
325	0	166.7169952	-25.16200066	6.101844788	1.222303152	-6.55452919	1.0
326	0	166.7169952	-25.16200066	5.747894287	0.6887180209	-5.894657612	1.0
327	0	166.7169952	-25.16200066	3.660888195	0.8727132678	-5.753396511	1.0
328	0	166.7169952	-25.16200066	1.404832363	1.323342323	-5.879679203	1.0
[Head]
325	0	96.17900085	16.84999847	-40.93552017	38.38742447	-22.40306473	1.0
326	0	96.17900085	16.84999847	-42.92095566	37.799366	-21.65740395	1.0
327	0	96.17900085	16.84999847	-44.67554855	38.20853043	-20.83560944	1.0
328	0	96.17900085	16.84999847	-45.49169922	39.37783051	-20.80480766	1.0
[LeftEye]
325	30.6760006	64.09500122	92.83599854	0	0	0	1.0
326	30.6760006	64.09500122	92.83599854	0	0	0	1.0
327	30.6760006	64.09500122	92.83599854	0	0	0	1.0
328	30.6760006	64.09500122	92.83599854	0	0	0	1.0
[RightEye]
325	-30.6760006	64.09500122	92.83499908	0	0	0	1.0
326	-30.6760006	64.09500122	92.83499908	0	0	0	1.0
327	-30.6760006	64.09500122	92.83499908	0	0	0	1.0
328	-30.6760006	64.09500122	92.83499908	0	0	0	1.0
[LeftShoulder]
325	45.70400238	109.4599991	-26.28000069	4.117332458	-10.67836475	-7.734623432	1.0
326	45.70400238	109.4599991	-26.28000069	4.13342762	-10.81031513	-7.949989319	1.0
327	45.70400238	109.4599991	-26.28000069	4.076475143	-10.8650856	-7.053944111	1.0
328	45.70400238	109.4599991	-26.28000069	3.980367184	-10.61871147	-5.523985386	1.0
[LeftArm]
325	105.923996	-5.24600029	-22.32099915	46.37075424	26.06840515	-43.61297989	1.0
326	105.923996	-5.24600029	-22.32099915	48.08416748	28.31661224	-39.25299835	1.0
327	105.923996	-5.24600029	-22.32099915	47.7986412	28.63147354	-38.8372879	1.0
328	105.923996	-5.24600029	-22.32099915	46.51004791	26.93121338	-41.70771027	1.0
[LeftForeArm]
325	278.414978	-0.0009999999311	0	0.0001726749615	-85.13719177	-0.0004112634342	1.0
326	278.414978	-0.0009999999311	0	0.0001373280538	-91.53858948	-0.0003814686788	1.0
327	278.414978	-0.0009999999311	0	2.81074972e-05	-93.73506927	-0.0002458680829	1.0
328	278.414978	-0.0009999999311	0	-0.001202784711	-91.29018402	0.0008251546533	1.0
[LeftHand]
325	283.2879944	0	0	35.78926468	-37.8850708	-34.34912491	1.0
326	283.2879944	0	0	32.62048721	-31.97107315	-31.46039391	1.0
327	283.2879944	0	0	33.56085968	-30.15305138	-29.07093048	1.0
328	283.2879944	0	0	36.28015137	-32.84288788	-28.23070335	1.0
[LeftHandThumb1]
325	24.6609993	-15.75	26.8239994	-1.441468239	-8.319262505	8.653953552	1.0
326	24.6609993	-15.75	26.8239994	-1.441489577	-8.319265366	8.653964043	1.0
327	24.6609993	-15.75	26.8239994	-1.44147408	-8.31927681	8.653958321	1.0
328	24.6609993	-15.75	26.8239994	-1.441473246	-8.319271088	8.653962135	1.0
[LeftHandThumb2]
325	32.29800034	-18.64699936	18.64699936	-0.9986173511	48.0361557	-30.10182571	1.0
326	32.29800034	-18.64699936	18.64699936	-0.9985877275	48.03616333	-30.10181236	1.0
327	32.29800034	-18.64699936	18.64699936	-0.9986089468	48.0361824	-30.10182571	1.0
328	32.29800034	-18.64699936	18.64699936	-0.9986157417	48.03616714	-30.10182762	1.0
[LeftHandThumb3]
325	26.52600098	-15.31499958	15.31499958	7.522192955	50.02408981	24.38757515	1.0
326	26.52600098	-15.31499958	15.31499958	7.522173405	50.02409744	24.3875618	1.0
327	26.52600098	-15.31499958	15.31499958	7.522150517	50.02408981	24.38756371	1.0
328	26.52600098	-15.31499958	15.31499958	7.522143364	50.02409363	24.38754654	1.0
[LeftHandThumb4]
325	19.54599953	-11.28499985	11.28499985	0	0	0	1.0
326	19.54599953	-11.28499985	11.28499985	0	0	0	1.0
327	19.54599953	-11.28499985	11.28499985	0	0	0	1.0
328	19.54599953	-11.28499985	11.28499985	0	0	0	1.0
[LeftHandIndex1]
325	91.09299469	-5.170999527	22.60099792	-1.706927419	9.272190094	-79.12528992	1.0
326	91.09299469	-5.170999527	22.60099792	-1.706924319	9.272182465	-79.12528229	1.0
327	91.09299469	-5.170999527	22.60099792	-1.706931353	9.272175789	-79.12528229	1.0
328	91.09299469	-5.170999527	22.60099792	-1.706927896	9.272179604	-79.12528992	1.0
[LeftHandIndex2]
325	36.76399994	0	0	-5.084222794	5.778054237	-82.67962646	1.0
326	36.76399994	0	0	-5.084228516	5.778057098	-82.67964935	1.0
327	36.76399994	0	0	-5.084235668	5.778061867	-82.67962646	1.0
328	36.76399994	0	0	-5.084231377	5.778055191	-82.67964172	1.0
[LeftHandIndex3]
325	28.83100128	0	0	-6.449675083	5.791749001	-96.16447449	1.0
326	28.83100128	0	0	-6.449681759	5.791752815	-96.16448212	1.0
327	28.83100128	0	0	-6.449681759	5.791757584	-96.16448975	1.0
328	28.83100128	0	0	-6.449679852	5.791757107	-96.16447449	1.0
[LeftHandIndex4]
325	23.92700005	0	0	0	0	0	1.0
326	23.92700005	0	0	0	0	0	1.0
327	23.92700005	0	0	0	0	0	1.0
328	23.92700005	0	0	0	0	0	1.0
[LeftHandMiddle1]
325	95.33399963	0	0	-6.494776726	5.273255825	-74.30394745	1.0
326	95.33399963	0	0	-6.494757652	5.273255825	-74.30394745	1.0
327	95.33399963	0	0	-6.494755268	5.273247719	-74.30394745	1.0
328	95.33399963	0	0	-6.494759083	5.273246288	-74.30393982	1.0
[LeftHandMiddle2]
325	36.98199844	0	0	-7.583481312	5.554402828	-107.5965729	1.0
326	36.98199844	0	0	-7.583490849	5.554388046	-107.5966034	1.0
327	36.98199844	0	0	-7.583500385	5.554382801	-107.5966034	1.0
328	36.98199844	0	0	-7.583496571	5.554392338	-107.5965881	1.0
[LeftHandMiddle3]
325	29.50900078	0	0	-4.044072628	5.547115803	-72.16721344	1.0
326	29.50900078	0	0	-4.04407835	5.547124386	-72.16720581	1.0
327	29.50900078	0	0	-4.04407835	5.54712534	-72.16720581	1.0
328	29.50900078	0	0	-4.044081211	5.54713726	-72.16720581	1.0
[LeftHandMiddle4]
325	28.3390007	0	0	0	0	0	1.0
326	28.3390007	0	0	0	0	0	1.0
327	28.3390007	0	0	0	0	0	1.0
328	28.3390007	0	0	0	0	0	1.0
[LeftHandRing1]
325	91.04499817	-0.4390000105	-18.65100098	-7.093585491	2.507944822	-79.76668549	1.0
326	91.04499817	-0.4390000105	-18.65100098	-7.093590736	2.5079391	-79.76667786	1.0
327	91.04499817	-0.4390000105	-18.65100098	-7.093586922	2.507939339	-79.7666626	1.0
328	91.04499817	-0.4390000105	-18.65100098	-7.093584061	2.507945061	-79.76667786	1.0
[LeftHandRing2]
325	31.54000092	0	0	-6.249144077	5.809811115	-94.18067932	1.0
326	31.54000092	0	0	-6.249129295	5.809827805	-94.18068695	1.0
327	31.54000092	0	0	-6.249156952	5.809822083	-94.18068695	1.0
328	31.54000092	0	0	-6.249163151	5.809813023	-94.18070221	1.0
[LeftHandRing3]
325	29.37700081	0	0	-2.898622274	5.038871288	-59.79806137	1.0
326	29.37700081	0	0	-2.898630857	5.038857937	-59.79807281	1.0
327	29.37700081	0	0	-2.898605824	5.038880825	-59.79807663	1.0
328	29.37700081	0	0	-2.898601532	5.038879395	-59.798069	1.0
[LeftHandRing4]
325	26.47500038	0	0	0	0	0	1.0
326	26.47500038	0	0	0	0	0	1.0
327	26.47500038	0	0	0	0	0	1.0
328	26.47500038	0	0	0	0	0	1.0
[LeftHandPinky1]
325	80.77799988	-4.887000084	-38.06099701	-15.74281311	5.236315727	-84.9630661	1.0
326	80.77799988	-4.887000084	-38.06099701	-15.74280453	5.236326694	-84.9630661	1.0
327	80.77799988	-4.887000084	-38.06099701	-15.74280167	5.236336708	-84.96305084	1.0
328	80.77799988	-4.887000084	-38.06099701	-15.74280357	5.236325741	-84.9630661	1.0
[LeftHandPinky2]
325	36	0	0	-2.465521336	4.761463165	-54.73122025	1.0
326	36	0	0	-2.465528965	4.761482239	-54.73120499	1.0
327	36	0	0	-2.465509653	4.761455059	-54.73118973	1.0
328	36	0	0	-2.465514421	4.761450291	-54.73118591	1.0
[LeftHandPinky3]
325	21.14200211	0	0	-4.929656029	5.7561903	-81.14133453	1.0
326	21.14200211	0	0	-4.929641247	5.756198406	-81.14133453	1.0
327	21.14200211	0	0	-4.929647446	5.756205559	-81.14134216	1.0
328	21.14200211	0	0	-4.929660797	5.75619936	-81.14133453	1.0
[LeftHandPinky4]
325	19.75699997	0	0	0	0	0	1.0
326	19.75699997	0	0	0	0	0	1.0
327	19.75699997	0	0	0	0	0	1.0
328	19.75699997	0	0	0	0	0	1.0
[RightShoulder]
325	-45.70000076	109.4620056	-26.28000069	2.517374039	1.215047956	-1.694733381	1.0
326	-45.70000076	109.4620056	-26.28000069	2.557245493	-0.3659857213	-2.019991636	1.0
327	-45.70000076	109.4620056	-26.28000069	2.324552536	1.038559437	-4.155866146	1.0
328	-45.70000076	109.4620056	-26.28000069	2.104745865	3.899255276	-5.496446133	1.0
[RightArm]
325	-105.9280014	-5.248000145	-22.32099915	58.83786011	-26.39656448	35.5728035	1.0
326	-105.9280014	-5.248000145	-22.32099915	61.2073822	-21.49238586	37.85331345	1.0
327	-105.9280014	-5.248000145	-22.32099915	61.93109894	-18.22755814	42.79338074	1.0
328	-105.9280014	-5.248000145	-22.32099915	61.90348053	-17.54172325	44.63176346	1.0
[RightForeArm]
325	-278.414978	0	0	1.051113304e-05	97.73061371	-5.879830496e-06	1.0
326	-278.414978	0	0	0.0007629403262	91.98061371	0.0005798348575	1.0
327	-278.414978	0	0	0.0002134500392	86.49980164	0.0002115028619	1.0
328	-278.414978	0	0	-6.353302979e-06	85.64174652	1.785803397e-05	1.0
[RightHand]
325	-283.2879944	0	0.0009999999311	27.26977921	24.45656013	24.6409874	1.0
326	-283.2879944	0	0.0009999999311	25.26474762	31.07582664	23.45455742	1.0
327	-283.2879944	0	0.0009999999311	25.5879097	36.64641571	20.15675163	1.0
328	-283.2879944	0	0.0009999999311	25.95772552	37.70787048	15.68245506	1.0
[RightHandPinky1]
325	-80.76699829	-4.885000229	-38.06000137	-14.51716423	-4.048307419	84.21438599	1.0
326	-80.76699829	-4.885000229	-38.06000137	-14.51716328	-4.048316479	84.21437836	1.0
327	-80.76699829	-4.885000229	-38.06000137	-14.51716232	-4.048308372	84.21437073	1.0
328	-80.76699829	-4.885000229	-38.06000137	-14.51717091	-4.048318386	84.21437073	1.0
[RightHandPinky2]
325	-36	0	0.0009999999311	-1.96083951	-3.784814596	54.78262711	1.0
326	-36	0	0.0009999999311	-1.960835576	-3.784821033	54.78261566	1.0
327	-36	0	0.0009999999311	-1.960839987	-3.784816504	54.78264618	1.0
328	-36	0	0.0009999999311	-1.960831642	-3.784822941	54.78263474	1.0
[RightHandPinky3]
325	-21.14200211	0	0	-3.919519663	-4.575715542	81.15796661	1.0
326	-21.14200211	0	0	-3.919505358	-4.575723648	81.15796661	1.0
327	-21.14200211	0	0	-3.919508696	-4.575725079	81.15795898	1.0
328	-21.14200211	0	0	-3.919518232	-4.575720787	81.15795898	1.0
[RightHandPinky4]
325	-19.75699997	0	0	0	0	0	1.0
326	-19.75699997	0	0	0	0	0	1.0
327	-19.75699997	0	0	0	0	0	1.0
328	-19.75699997	0	0	0	0	0	1.0
[RightHandRing1]
325	-91.03599548	-0.4390000105	-18.65100098	-5.975852489	-1.320501447	79.0226593	1.0
326	-91.03599548	-0.4390000105	-18.65100098	-5.975853443	-1.320491552	79.02268982	1.0
327	-91.03599548	-0.4390000105	-18.65100098	-5.975865841	-1.320479989	79.02267456	1.0
328	-91.03599548	-0.4390000105	-18.65100098	-5.975865841	-1.320492029	79.0226593	1.0
[RightHandRing2]
325	-31.54000092	0	0	-4.9670825	-4.618291378	94.17275238	1.0
326	-31.54000092	0	0	-4.967087269	-4.618291378	94.17273712	1.0
327	-31.54000092	0	0	-4.96709013	-4.618291378	94.17276001	1.0
328	-31.54000092	0	0	-4.967092514	-4.618296623	94.17274475	1.0
[RightHandRing3]
325	-29.37700081	0	0	-2.306365013	-4.006084919	59.84557343	1.0
326	-29.37700081	0	0	-2.306357622	-4.006089687	59.84557343	1.0
327	-29.37700081	0	0	-2.306354046	-4.006089211	59.84557724	1.0
328	-29.37700081	0	0	-2.30634594	-4.006088734	59.84556961	1.0
[RightHandRing4]
325	-26.47500038	0	0	0	0	0	1.0
326	-26.47500038	0	0	0	0	0	1.0
327	-26.47500038	0	0	0	0	0	1.0
328	-26.47500038	0	0	0	0	0	1.0
[RightHandMiddle1]
325	-95.32500458	0	0	-5.490190983	-4.098504066	73.57289124	1.0
326	-95.32500458	0	0	-5.490175247	-4.098495007	73.57289886	1.0
327	-95.32500458	0	0	-5.490184307	-4.09849453	73.57291412	1.0
328	-95.32500458	0	0	-5.490183353	-4.098506451	73.57289886	1.0
[RightHandMiddle2]
325	-36.98199844	0	0	-6.026573658	-4.415510654	107.5651169	1.0
326	-36.98199844	0	0	-6.026561737	-4.415489674	107.5651169	1.0
327	-36.98199844	0	0	-6.026565552	-4.415493011	107.5651093	1.0
328	-36.98199844	0	0	-6.026576519	-4.415482044	107.5651245	1.0
[RightHandMiddle3]
325	-29.50900078	0	0	-3.216331244	-4.411746502	72.19917297	1.0
326	-29.50900078	0	0	-3.216322422	-4.411737442	72.19916534	1.0
327	-29.50900078	0	0	-3.216337919	-4.411731243	72.19917297	1.0
328	-29.50900078	0	0	-3.216331244	-4.411737919	72.19917297	1.0
[RightHandMiddle4]
325	-28.3390007	0	0.0009999999311	0	0	0	1.0
326	-28.3390007	0	0.0009999999311	0	0	0	1.0
327	-28.3390007	0	0.0009999999311	0	0	0	1.0
328	-28.3390007	0	0.0009999999311	0	0	0	1.0
[RightHandIndex1]
325	-91.08300018	-5.167999744	22.60099792	-0.6033910513	-8.085643768	78.39245605	1.0
326	-91.08300018	-5.167999744	22.60099792	-0.6033847332	-8.085640907	78.39245605	1.0
327	-91.08300018	-5.167999744	22.60099792	-0.6033708453	-8.085647583	78.3924408	1.0
328	-91.08300018	-5.167999744	22.60099792	-0.6033648252	-8.085650444	78.39244843	1.0
[RightHandIndex2]
325	-36.76399994	0	0	-4.042258263	-4.593087673	82.69343567	1.0
326	-36.76399994	0	0	-4.042243004	-4.593068123	82.69345093	1.0
327	-36.76399994	0	0	-4.042232513	-4.593065739	82.69345093	1.0
328	-36.76399994	0	0	-4.042235851	-4.593061447	82.69345856	1.0
[RightHandIndex3]
325	-28.83100128	0	0	-5.126287937	-4.603960991	96.1528244	1.0
326	-28.83100128	0	0	-5.12630558	-4.60396719	96.15283203	1.0
327	-28.83100128	0	0	-5.126279831	-4.603954792	96.15281677	1.0
328	-28.83100128	0	0	-5.126290798	-4.603955269	96.15283203	1.0
[RightHandIndex4]
325	-23.92700005	0	0	0	0	0	1.0
326	-23.92700005	0	0	0	0	0	1.0
327	-23.92700005	0	0	0	0	0	1.0
328	-23.92700005	0	0	0	0	0	1.0
[RightHandThumb1]
325	-24.64799881	-15.72700024	26.82600021	-2.388234615	10.16858673	-8.287032127	1.0
326	-24.64799881	-15.72700024	26.82600021	-2.388250351	10.16858673	-8.287026405	1.0
327	-24.64799881	-15.72700024	26.82600021	-2.388249874	10.16858196	-8.287029266	1.0
328	-24.64799881	-15.72700024	26.82600021	-2.388244867	10.16858387	-8.287026405	1.0
[RightHandThumb2]
325	-32.29800034	-18.64699936	18.64699936	-2.059291124	-49.39984131	30.22305489	1.0
326	-32.29800034	-18.64699936	18.64699936	-2.059310436	-49.39985275	30.22304535	1.0
327	-32.29800034	-18.64699936	18.64699936	-2.059318066	-49.39985657	30.22304726	1.0
328	-32.29800034	-18.64699936	18.64699936	-2.059305668	-49.39985275	30.22305298	1.0
[RightHandThumb3]
325	-26.52600098	-15.31399918	15.31399918	13.49724293	-55.14929581	-27.72499084	1.0
326	-26.52600098	-15.31399918	15.31399918	13.49726105	-55.14929962	-27.72501755	1.0
327	-26.52600098	-15.31399918	15.31399918	13.49728966	-55.14930344	-27.72503471	1.0
328	-26.52600098	-15.31399918	15.31399918	13.49729061	-55.14929962	-27.72504234	1.0
[RightHandThumb4]
325	-19.54599953	-11.28499985	11.28499985	0	0	0	1.0
326	-19.54599953	-11.28499985	11.28499985	0	0	0	1.0
327	-19.54599953	-11.28499985	11.28499985	0	0	0	1.0
328	-19.54599953	-11.28499985	11.28499985	0	0	0	1.0
[LeftUpLeg]
325	82.07800293	-67.51699829	-15.99599934	-27.0750885	19.10816383	32.84736252	1.0
326	82.07800293	-67.51699829	-15.99599934	-22.63646126	14.98600197	36.5389595	1.0
327	82.07800293	-67.51699829	-15.99599934	-19.36038208	11.84973431	37.37835693	1.0
328	82.07800293	-67.51699829	-15.99599934	-25.8006115	10.28629589	35.97085571	1.0
[LeftLeg]
325	0	-443.7049866	2.845999956	27.44419861	1.627799511	-3.279798269	1.0
326	0	-443.7049866	2.845999956	16.36915207	3.826475143	-1.153386235	1.0
327	0	-443.7049866	2.845999956	12.35075283	7.334869862	-0.1036684066	1.0
328	0	-443.7049866	2.845999956	31.19444084	3.903521776	-1.540713787	1.0
[LeftFoot]
325	0	-444.2789917	-29.8219986	19.92437553	-14.32576466	-4.314723015	1.0
326	0	-444.2789917	-29.8219986	11.65684795	-1.619687915	19.3427906	1.0
327	0	-444.2789917	-29.8219986	12.17396736	3.275278091	27.43004799	1.0
328	0	-444.2789917	-29.8219986	6.868179798	-3.386387348	21.66440201	1.0
[LeftToeBase]
325	0	-87.28699493	107.1060028	-8.749320984	-0.02176824026	-0.08906051517	1.0
326	0	-87.28699493	107.1060028	-8.42768383	1.308035553e-05	3.591024506e-05	1.0
327	0	-87.28699493	107.1060028	-8.341487885	-1.018727289e-06	-1.123747643e-05	1.0
328	0	-87.28699493	107.1060028	-7.189842701	-1.553245966e-06	9.286412023e-06	1.0
[RightUpLeg]
325	-82.07800293	-67.51699829	-15.99599934	-16.02692032	10.40518761	-5.305397511	1.0
326	-82.07800293	-67.51699829	-15.99599934	-17.22659111	10.60895824	-4.418159485	1.0
327	-82.07800293	-67.51699829	-15.99599934	-17.46925545	9.961665154	-2.833727121	1.0
328	-82.07800293	-67.51699829	-15.99599934	-16.7787838	7.492369175	0.05302057415	1.0
[RightLeg]
325	0	-443.7049866	2.861999989	38.07745361	-7.517490387	-6.599148273	1.0
326	0	-443.7049866	2.861999989	38.20637894	-6.974140644	-6.274770737	1.0
327	0	-443.7049866	2.861999989	39.31116104	-6.376595497	-6.074410915	1.0
328	0	-443.7049866	2.861999989	39.28543472	-6.806323051	-6.344443798	1.0
[RightFoot]
325	0	-444.2770081	-29.83799934	-21.31467247	-25.87611389	11.72540379	1.0
326	0	-444.2770081	-29.83799934	-28.77892113	-24.03209686	15.73294353	1.0
327	0	-444.2770081	-29.83799934	-30.82841301	-23.4365921	16.29872704	1.0
328	0	-444.2770081	-29.83799934	-28.22874069	-22.34234238	13.37494278	1.0
[RightToeBase]
325	0	-87.28699493	107.1060028	-6.754404545	-9.614966984e-06	8.232770597e-06	1.0
326	0	-87.28699493	107.1060028	-0.7581672072	-1.26092047e-07	-1.874065333e-06	1.0
327	0	-87.28699493	107.1060028	0.3363017142	-2.018411806e-06	3.056457444e-06	1.0
328	0	-87.28699493	107.1060028	-2.530641317	0.01579469815	0.06340267509	1.0
[EndOfFile]
